<svg xmlns="http://www.w3.org/2000/svg" viewBox="0 0 294.67 43.99">
  <defs>
    <style>
      .cls-1 {
        fill: #241f20;
      }
    </style>
  </defs>
  <title>logo</title>
  <g id="レイヤー_2" data-name="レイヤー 2">
    <g id="レイヤー_1-2" data-name="レイヤー 1">
      <g>
        <path class="cls-1" d="M9.57,44A19.84,19.84,0,0,1,.35,42l.7-4.87a19.82,19.82,0,0,0,7.69,1.76c3.7,0,5.52-1.06,5.52-4.05s-1.47-3.17-6.81-4.52C3.11,29.25,0,27.08,0,21.08c0-6.58,4.29-9.51,10.87-9.51a19.3,19.3,0,0,1,8.75,1.82l-1,5a21.23,21.23,0,0,0-7.11-1.29c-3.7,0-5.23.76-5.23,3.64S7.93,23.84,12.74,25c5.23,1.23,8,3.41,8,9.4C20.79,40.17,17.09,44,9.57,44Z"/>
        <path class="cls-1" d="M46.87,24.61V21.67c0-2.53-1-4.29-4.4-4.29-2.7,0-5.76.82-9.4,2.06l-.94-5.17a25.48,25.48,0,0,1,11-2.7c7.64,0,10.57,3.46,10.57,12.51V37.65c0,1.47.59,1.82,1.76,1.82h1.41L57,42.52a5.9,5.9,0,0,1-4.05,1.35,10.87,10.87,0,0,1-3.17-.47l-2.53-3.46-2.35,2.94A12.86,12.86,0,0,1,39.47,44c-4.52,0-8.63-2.35-8.63-8.87s3.23-8.87,11.51-9.93Zm0,12.74V28.54l-4.05.59c-3.94.59-5.46,1.7-5.46,5.23v.47c0,3.17,1.7,4.52,4.64,4.52A6.21,6.21,0,0,0,46.87,37.35Z"/>
        <path class="cls-1" d="M75,32.71V43.17H68.13V1H75V18.32l-1.12,9L84.81,12.22H92L81.23,26.08l4.05,3.52,7.28,13.57h-7.4L77.7,28.72Z"/>
        <path class="cls-1" d="M107,7.87a3.87,3.87,0,0,1-4.11-3.94,4.08,4.08,0,0,1,8.16,0A3.85,3.85,0,0,1,107,7.87Zm-3.46,35.3v-31h6.87v31Z"/>
        <path class="cls-1" d="M132.15,44a19.84,19.84,0,0,1-9.22-2l.7-4.87a19.82,19.82,0,0,0,7.69,1.76c3.7,0,5.52-1.06,5.52-4.05s-1.47-3.17-6.81-4.52c-4.35-1.06-7.46-3.23-7.46-9.22,0-6.58,4.29-9.51,10.87-9.51a19.3,19.3,0,0,1,8.75,1.82l-1,5a21.23,21.23,0,0,0-7.11-1.29c-3.7,0-5.23.76-5.23,3.64s1.64,3.11,6.46,4.29c5.23,1.23,8,3.41,8,9.4C143.37,40.17,139.67,44,132.15,44Z"/>
        <path class="cls-1" d="M162.17,18.85V43.17H155.3V1h6.87V16.15l3-3.41a11.86,11.86,0,0,1,5.23-1.17c5.4,0,8.4,3.29,8.4,10V43.17h-6.87V20.85c0-2.7-1.47-3.76-3.93-3.76A11.59,11.59,0,0,0,162.17,18.85Z"/>
        <path class="cls-1" d="M195.65,7.87a3.87,3.87,0,0,1-4.11-3.94,4.08,4.08,0,0,1,8.16,0A3.85,3.85,0,0,1,195.65,7.87Zm-3.46,35.3v-31h6.87v31Z"/>
        <path class="cls-1" d="M219.43,16.68l3.23-4.17a9.74,9.74,0,0,1,4.23-.94,6.42,6.42,0,0,1,3.76,1l-1.17,6.17a10.1,10.1,0,0,0-4.35-.76,11.86,11.86,0,0,0-5.58,1.59V43.17h-6.87v-31h4.52Z"/>
        <path class="cls-1" d="M254.44,24.61V21.67c0-2.53-1-4.29-4.41-4.29-2.7,0-5.75.82-9.4,2.06l-.94-5.17a25.48,25.48,0,0,1,11-2.7c7.63,0,10.57,3.46,10.57,12.51V37.65c0,1.47.59,1.82,1.76,1.82h1.41l.12,3.05a5.9,5.9,0,0,1-4.05,1.35,10.87,10.87,0,0,1-3.17-.47l-2.53-3.46-2.35,2.94A12.85,12.85,0,0,1,247,44c-4.52,0-8.63-2.35-8.63-8.87s3.23-8.87,11.51-9.93Zm0,12.74V28.54l-4.05.59c-3.94.59-5.46,1.7-5.46,5.23v.47c0,3.17,1.7,4.52,4.64,4.52A6.21,6.21,0,0,0,254.44,37.35Z"/>
        <path class="cls-1" d="M273.06,43.17V37.53l12.16-17.21,3.46-3.17-6.22.53H273.7V12.22h20.73v5.93l-11.86,17-3.88,3.76,6.4-.88h9.57v5.17Z"/>
      </g>
    </g>
  </g>
</svg>
